<svg version="1.2" xmlns="http://www.w3.org/2000/svg" viewBox="0 0 350 90" width="350" height="90">
	<title>logo</title>
	<style>
		.s0 { fill: #705238 } 
		.s1 { fill: #d3ac48 } 
		.s2 { fill: #000000 } 
	</style>
	<path id="svg_9" class="s0" d="m6.7 27.3q-0.7 0.5-0.7 1.7c0 0.8 0.1 1.2 0.5 1.6 0.3 0.1 2 0.2 6.6 0.2 3.7 0 6.5 0.1 6.5 0.2 0 0 0.4 0.5 0.7 0.8 0.5 0.4 0.9 0.8 1 0.9 0.1 0.1 0.5 0.6 1 1 0.4 0.4 0.9 0.8 1 0.9 0.4 0.4 1.6 1.7 2 2.1 0.4 0.3 0.8 0.7 1 1.1 0.4 0.3 0.7 0.7 0.9 0.9 0.3 0.2 0.7 0.6 0.9 0.8 0.2 0.2 0.6 0.6 1 0.9 0.5 0.5 1.8 1.8 2.1 2.2 0.2 0.1 0.6 0.5 1 0.9 0.5 0.4 0.9 0.9 1 1 0.1 0.1 0.6 0.5 0.9 0.9 0.4 0.4 0.9 0.8 1 0.9 0.1 0.1 0.5 0.6 1 1 0.4 0.4 0.8 0.9 1.1 1 0.1 0.2 0.5 0.6 0.8 0.8l0.6 0.5h6.5c7 0 7 0 7.4-0.9 0.1-0.5 0.1-1.6-0.2-1.9-0.4-1-0.2-0.9-7-0.9h-6.2l-0.4-0.5c-0.2-0.2-0.6-0.5-0.8-0.7-0.2-0.2-0.6-0.6-0.9-0.9-0.3-0.3-0.6-0.7-0.8-0.9-0.3-0.1-0.8-0.6-1.1-1-0.4-0.3-0.7-0.7-0.8-0.8-0.1 0-0.2-0.2-0.3-0.3-1-0.9-1.4-1.4-1.7-1.6-0.1-0.1-0.3-0.3-0.3-0.3-0.2-0.2-1.1-1.1-1.5-1.6-0.1-0.1-0.3-0.2-0.5-0.3-0.1-0.1-0.5-0.5-0.9-1-1.1-1.1-1.1-1.1-1.8-1.7-0.2-0.2-0.6-0.7-1-1-0.3-0.4-0.5-0.7-0.6-0.7 0 0-0.8-0.7-1.4-1.4-0.2-0.1-0.4-0.3-0.4-0.4-0.1 0-0.6-0.5-1.1-0.9-0.4-0.5-0.8-1-1-1-0.1-0.1-0.3-0.4-0.6-0.6-1.1-1.2-0.6-1.1-7.8-1.2-4.8 0-6.5 0-6.7 0.2z"/>
	<path id="svg_10" class="s0" d="m39.1 27.3c-0.4 0.4-0.6 0.7-0.6 1.3-0.1 0.7 0 1.4 0.4 1.8 0.2 0.3 0.7 0.4 6.6 0.4h6.3l0.3-0.5c0.7-0.9 0.5-2.6-0.4-3-0.6-0.3-12.1-0.3-12.6 0z"/>
	<path id="svg_12" class="s0" d="m39.1 33.6c-0.3 0.2-0.7 1.1-0.7 1.6 0 0.6 0.4 1.6 0.8 1.7 0.5 0.2 11.9 0.3 12.4 0.1 0.9-0.3 1.2-1.9 0.6-3l-0.2-0.5-6.3-0.1c-3.5 0-6.5 0.1-6.6 0.2z"/>
	<path id="svg_13" class="s0" d="m38.8 40.2c-0.2 0.2-0.3 0.7-0.3 0.9-0.1 0.7 0.1 1.7 0.5 2 0.1 0.1 2.7 0.2 6.6 0.2 5.5 0 6.2-0.1 6.5-0.4 0.6-0.5 0.6-1.8 0.1-2.7l-0.3-0.5h-6.3-6.5z"/>
	<path id="svg_14" class="s0" d="m6.8 42.1c-0.8 0.2-1 2.1-0.5 2.9 0.1 0.2 0.5 0.5 0.6 0.5 0.2 0.1 3 0.1 6.4 0.2h6.1l0.6 0.5c0.2 0.3 0.5 0.6 0.6 0.7 0.2 0.2 0.4 0.3 0.5 0.4 0.1 0.1 0.5 0.5 1 1 0.4 0.5 0.8 0.9 1 1 0.1 0.1 0.3 0.2 0.4 0.3 0.9 0.9 1.4 1.4 1.5 1.6 0.1 0.1 0.3 0.3 0.5 0.4 0.1 0 0.3 0.4 0.6 0.7 0.7 0.7 0.9 1 1.1 1.1 0.1 0.1 0.6 0.5 1.1 1 0.4 0.5 0.9 1 1 1 0.1 0.1 0.2 0.3 0.3 0.4 0.2 0.2 0.8 0.7 1.6 1.6 0.2 0.1 0.4 0.2 0.4 0.3 0.1 0.1 0.4 0.4 0.7 0.7 0.4 0.3 0.7 0.7 0.8 0.8 0.1 0 0.2 0.2 0.3 0.3 0.3 0.1 0.7 0.6 1.2 1.1 0.5 0.5 1 1 1 1.1 0.1 0.1 0.3 0.2 0.5 0.3 0 0.1 0.3 0.4 0.6 0.7 0.3 0.3 0.7 0.7 0.8 0.7 0.1 0.1 0.3 0.3 0.5 0.5 0.4 0.4 0.6 0.4 7 0.4 4.9 0 6.8-0.1 7-0.2 0.3-0.4 0.6-0.8 0.6-1.5 0-0.9-0.5-1.7-1.1-1.9-0.1-0.1-3.1-0.1-6.4-0.1h-6.1l-0.4-0.5c-0.2-0.2-0.5-0.5-0.6-0.5-0.1-0.1-0.2-0.3-0.4-0.4-0.1-0.2-0.7-0.7-1.5-1.6-0.2-0.1-0.4-0.2-0.5-0.3 0-0.1-0.3-0.4-0.6-0.7-0.4-0.3-0.7-0.7-0.8-0.8-0.1 0-0.2-0.2-0.4-0.3-0.1-0.1-0.6-0.6-1.1-1.1-0.5-0.5-1-1-1.1-1.1 0-0.1-0.5-0.5-0.9-0.9-0.3-0.4-0.8-0.8-1-0.9-0.1-0.1-0.2-0.3-0.3-0.3-0.2-0.2-1-1.1-1.5-1.6-0.1-0.1-0.4-0.3-0.5-0.3 0-0.1-0.4-0.5-0.9-1-1.3-1.4-1.3-1.4-2.6-2.6-0.6-0.7-1.9-1.9-2.2-2.2-0.1-0.1-0.5-0.4-0.8-0.8l-0.7-0.7h-6.7c-3.6 0-6.6 0-6.7 0.1z"/>
	<path id="svg_15" class="s0" d="m6.3 48.8c-0.4 0.7-0.4 1.7 0 2.4l0.2 0.5h6.6 6.5l0.2-0.4c0.5-0.9 0.4-1.7 0-2.6l-0.4-0.4h-6.4-6.3z"/>
	<path id="svg_16" class="s0" d="m6.5 54.7c-0.4 0.5-0.5 0.9-0.5 1.6 0 0.7 0.2 1.3 0.7 1.6 0.1 0.2 2 0.3 6.4 0.3 5.9 0 6.1-0.1 6.5-0.4 0.7-0.7 0.7-2.1 0.1-2.9l-0.4-0.5h-6.2c-5.6 0-6.3 0.1-6.6 0.3z"/>
	<path id="svg_17" class="s0" d="m7 60.7c-0.1 0.1-0.5 0.3-0.7 0.6-0.2 0.3-0.3 0.5-0.3 1.2 0 0.8 0.1 1.2 0.5 1.6 0.3 0.1 2 0.2 6.6 0.2h6.3l0.4-0.5q0.5-0.9 0.2-2c-0.3-1.2-0.4-1.2-6.9-1.2-3.3 0-6 0.1-6.1 0.1z"/>
	<path id="svg_45" class="s1" d="m6.7 34.9q-0.7 0.5-0.7 1.7c0 0.8 0.2 1.2 0.5 1.6 0.3 0.1 2 0.2 6.6 0.2 3.8 0 6.5 0.1 6.5 0.2 0 0.1 0.4 0.5 0.8 0.9 0.4 0.4 0.8 0.7 0.9 0.9 0.1 0 0.5 0.5 1 0.9 0.4 0.4 0.9 0.8 1 0.9 0.4 0.5 1.6 1.7 2.2 2.2 0.2 0.2 0.6 0.7 0.8 1 0.4 0.3 0.8 0.7 1 0.9 0.2 0.2 0.6 0.6 0.8 0.8 0.3 0.3 0.7 0.7 1 0.9 0.5 0.5 1.8 1.8 2.1 2.2 0.2 0.1 0.6 0.5 1 1 0.5 0.4 0.9 0.8 1 0.9 0.1 0.1 0.6 0.5 1 0.9 0.3 0.4 0.8 0.9 0.9 0.9 0.1 0.2 0.5 0.6 1 1 0.4 0.4 0.8 0.9 1.1 1 0.1 0.2 0.5 0.6 0.8 0.8l0.6 0.5h6.5c7 0 7 0 7.4-0.9 0.1-0.5 0.1-1.5 0-1.9-0.6-1-0.3-0.9-7.2-0.9h-6.2l-0.4-0.4c-0.2-0.3-0.6-0.6-0.8-0.8-0.2-0.2-0.5-0.6-0.9-0.9-0.3-0.3-0.6-0.7-0.8-0.8-0.3-0.2-0.7-0.7-1-1-0.5-0.4-0.8-0.8-0.9-0.9-0.1 0-0.2-0.2-0.3-0.3-1-0.9-1.4-1.4-1.7-1.6q-0.1-0.1-0.3-0.3c-0.2-0.2-1.1-1.1-1.5-1.5-0.1-0.2-0.3-0.3-0.5-0.4-0.1-0.1-0.5-0.5-0.9-1-1.1-1.1-1.1-1.1-1.8-1.6-0.2-0.3-0.6-0.8-1-1.1-0.3-0.4-0.5-0.6-0.5-0.6-0.1 0-0.9-0.8-1.5-1.5-0.2-0.1-0.3-0.3-0.4-0.3-0.1-0.1-0.5-0.5-1.1-1-0.4-0.5-0.8-1-1-1-0.1-0.1-0.3-0.4-0.5-0.6-1.2-1.2-0.7-1.1-7.8-1.2-4.9 0-6.6 0-6.8 0.2z"/>
	<path id="svg_46" fill-rule="evenodd" class="s1" d="m45.5 25.4c-4.2 0-7.6-3-7.6-6.7 0-3.7 3.4-6.7 7.6-6.7 4.1 0 7.5 3 7.5 6.7 0 3.7-3.4 6.7-7.5 6.7z"/>
	<path id="svg_2" fill-rule="evenodd" class="s0" d="m69 28.7c0.6 0.2 1.3 0.5 1.5 0.7 0.1 0.1 0.3 0.2 0.4 0.2 0 0 1.8 1.2 3.9 2.8 2.1 1.5 4 2.8 4.2 2.9 0.2 0.1 2 1.4 4 2.8 2 1.4 3.7 2.6 3.7 2.6 0.1 0 0.1-2.7 0.1-6v-6.1h5.7v6.4c0 6.5 0 6.5-0.4 7.3-0.4 1-1 1.5-2.3 2.2-0.7 0.3-1.2 0.4-2.6 0.4-2.7 0.1-3.4-0.1-7-2.7-1.1-0.8-3.7-2.6-5.7-4.1-2.1-1.4-4.6-3.2-5.8-3.9-1.1-0.8-2.1-1.5-2.1-1.5-0.1-0.1-0.2 2.4-0.2 5.9v6h-5.7v-6.6c0-6.3 0-6.6 0.3-7.3 0.4-0.9 1.1-1.4 2.5-2 1.6-0.6 3.7-0.6 5.5 0zm45.4-0.1h12.9v4h-26.2v1.9h26.2v4.2h-26.2v2h26.2v3.9h-13.1c-12.7 0-13.2 0-14.2-0.3-2-0.6-3.5-1.8-4.3-3.3-0.3-0.6-0.3-0.9-0.3-4.7 0.1-3.9 0.1-4.1 0.5-4.8 0.7-1.2 3.1-2.6 5.2-2.8 0.2 0 6.3-0.1 13.3-0.1zm32.8 0.1c9 0 10.6 0 11 0.2 0.9 0.6 2.3 1.6 2.8 2.2 1 1 1 1.3 1 5.5 0 4.4 0 4.7-1.2 5.8-0.8 0.7-0.9 0.9-2.5 1.7l-0.9 0.4-22.1 0.1-1.2-0.4c-1.7-0.7-2.7-1.4-3.5-2.8-0.3-0.6-0.4-0.8-0.4-4.5-0.1-4.6 0-5.2 1.2-6.2 1.1-0.9 3.1-1.8 4.7-2 0.3 0 5.3-0.1 11.1 0zm9.3 3.9h-20.6v8.1h20.6zm37.5-4h13.2v4h-27.3v1.9h11.8c12.9 0.1 11.8 0 14.2 1.1 2.3 1.2 3.4 3.5 2.5 5.5-0.6 1.4-1.9 2.3-4.1 3.1l-1.3 0.4h-27.8v-3.9h27.8v-2.2h-11.6c-9.5 0-11.8 0-12.5-0.2-4-1.1-6-3.7-4.7-6.3 0.7-1.6 3.4-3 5.9-3.3 0.3 0 6.5-0.1 13.9-0.1zm17.3 0h13.9c12.4 0.1 14.1 0.1 14.7 0.4 4.7 1.6 6.1 4.7 3.4 7.5-0.7 0.6-1.9 1.3-3.4 1.9-0.4 0.1-3 0.2-11.7 0.3h-11.2v5.9h-5.7zm27.3 4.1h-21.6v2h21.6zm55.8-4l13.2-0.1v4.1h-26.8v8.1h26.8v3.9h-27.3l-1.2-0.5c-0.6-0.2-1.4-0.6-1.7-0.8-0.4-0.3-0.7-0.4-0.8-0.4-0.3 0-1.1-1.1-1.3-1.8-0.3-0.6-0.3-1.3-0.2-4.6 0-4.4 0.1-4.8 1.2-5.8q1.6-1.6 4-2c0.5-0.1 6.8-0.1 14.1-0.1zm35.5 0l12.9-0.1v2l-0.1 2-13.1 0.1h-13.1v1.8l13.1 0.1h13.1v4.1h-13.1l-13.1 0.1v2h26.3v3.9h-13.2c-12.7 0-13.2-0.1-14.3-0.4-0.6-0.2-1.3-0.5-1.5-0.6-0.3-0.2-0.5-0.4-0.6-0.4-0.2 0-1.1-0.8-1.4-1.3-0.1-0.1-0.3-0.6-0.5-1-0.3-0.7-0.4-1-0.3-4.7 0-4 0-4 0.5-4.8 0.7-1.2 2.8-2.4 4.6-2.7 0.5-0.1 6.7-0.1 13.8-0.1zm-69.2 1.7c1 0.7 1.4 1.1 4.2 4.8 1.3 1.8 2.5 3.4 2.7 3.6 0.1 0.1 0.4 0.6 0.8 1.1 2.5 3.4 3.3 4.4 3.5 4.6 0.1 0.2 0.4 0.5 0.5 0.7l0.3 0.5h-6.6l-0.7-1c-1.1-1.6-1.4-1.9-2.2-3-1-1.3-1.9-2.6-2.3-3.1-1-1.3-3.3-4.4-3.6-4.7l-0.3-0.4-0.3 0.3c-0.4 0.5-0.9 1.1-2.3 3.1-0.7 1-1.4 1.9-1.5 2-0.1 0.2-0.5 0.7-0.9 1.2-0.3 0.5-0.7 1-0.8 1 0 0.1-0.3 0.5-0.6 0.9-0.6 0.8-2 2.8-2.5 3.4-0.2 0.2-0.6 0.3-3.5 0.3h-3.3l1.2-1.7c0.7-0.9 1.9-2.5 2.7-3.5 5.4-7.4 6-8.2 6.8-9 1.2-1.3 2.6-2 4.4-2.2 1.4-0.2 3.2 0.3 4.3 1.1z"/>
	<path id="svg_18" fill-rule="evenodd" class="s2" d="m290.9 66.9h1v8.1h-0.5c-0.4 0-0.5-0.1-0.5-0.4v-0.4l-0.4 0.4c-1 0.9-3.1 0.8-4.2-0.2-1.2-1-1-2.7 0.2-3.7 0.7-0.4 0.9-0.5 2-0.5 1.3 0 1.9 0.2 2.2 0.8 0.1 0.1 0.2-0.8 0.2-2zm-4.2 4.9c-0.3 0.5-0.2 1.4 0.2 2 0.3 0.5 0.5 0.6 1.2 0.8 1.7 0.2 2.8-0.5 2.8-1.9 0-0.9-0.3-1.4-1-1.7-0.9-0.5-2.8-0.1-3.2 0.8zm26.6-4.9h1v8.1h-1zm-108.2 1.2c0.6 0 0.6 0 0.6 0.4-0.1 0.3-0.2 0.4-0.6 0.4-0.5 0-0.9-0.3-0.6-0.7 0 0 0.3-0.1 0.6-0.1zm-3.7 0.3c0.4 0 0.4 0.1 0.4 1v0.9h0.7c0.5 0 0.7 0 0.7 0.2 0 0.2-0.2 0.3-0.7 0.3h-0.7v4.2h-0.8v-2.1l-0.1-2-0.5-0.1c-0.8-0.1-0.8-0.5 0-0.5h0.6v-0.9c0-0.9 0-1 0.4-1zm29.1 1.8c0.1 0 0.4 0.1 0.6 0.1 0.3 0 0.7 0.1 0.9 0.3 0.4 0.4 0.4 0.4 0.1 0.6-0.2 0.2-0.3 0.2-0.7-0.1-0.8-0.6-2.4-0.3-2.2 0.5q0.1 0.3 1.1 0.6c2 0.6 2.2 0.8 2.2 1.7 0 1.3-3 1.8-4.2 0.8-0.4-0.3-0.4-0.5 0.1-0.7 0.2-0.1 0.4-0.1 0.6 0.2 0.8 0.7 3 0.4 2.6-0.5-0.1-0.2-1.1-0.7-2.2-1.1-1.7-0.4-1.4-2.2 0.3-2.4 0.3 0 0.7 0 0.8 0zm-54.2 0.1c1.8 0 2.1 0.1 2.1 0.5 0 0.3-0.1 0.3-0.4 0.2-0.7-0.2-2.5-0.2-3 0-2.1 0.8-1.7 3.3 0.5 3.6 0.9 0.1 2.1 0 2.6-0.3 0.2-0.1 0.3-0.1 0.3 0.2 0 0.4-0.1 0.5-1.2 0.7-0.9 0.1-1.3 0.1-2 0-2.8-0.7-3.4-3.2-1.1-4.5 0.5-0.4 0.9-0.4 2.2-0.4zm3.8 0h0.5c0.4 0 0.5 0 0.5 0.4v0.5l0.6-0.5c0.4-0.3 0.7-0.4 1.4-0.4 0.7 0 0.8 0 0.8 0.2-0.1 0.2-0.4 0.3-0.7 0.3-0.4 0-0.8 0.1-1.1 0.2-0.8 0.5-1 0.9-1 2.5v1.5h-1zm7.5 0c1 0 1.4 0.1 1.9 0.4 0.6 0.3 1 1.1 1 1.7v0.4h-5.1v0.5c0.2 0.6 0.9 1.2 1.7 1.3 0.8 0.1 1.9-0.1 2.3-0.6 0.4-0.4 0.9-0.4 1.1-0.1 0.2 0.3-1 1.1-1.9 1.3-1.4 0.2-2.6-0.1-3.5-0.8-0.6-0.6-0.6-0.8-0.6-1.5 0-1 0.3-1.6 1.1-2.2 0.5-0.3 0.8-0.4 2-0.4zm-2.1 1.6c0 0.2 0.2 0.3 2 0.3 1.1 0 2-0.1 2-0.1 0-0.3-0.4-0.8-0.8-1-1.1-0.6-3-0.1-3.2 0.8zm9.5-1.6c1.1 0 1.4 0.1 1.9 0.4l0.5 0.5v-0.5c0-0.3 0.1-0.4 0.5-0.4h0.4v4.7h-0.4q-0.4 0-0.5-0.3v-0.4l-0.5 0.4c-1.1 0.8-3.2 0.7-4.2-0.2-1.2-1.2-0.9-2.9 0.5-3.9 0.3-0.2 0.8-0.3 1.8-0.3zm-1.1 0.8c-0.5 0.2-1 1.1-1 1.7 0 1.2 1.3 2 2.9 1.8 1.7-0.3 2.2-2.4 0.8-3.4-0.7-0.5-2-0.5-2.7-0.1zm10.6-0.8h1v4.7h-1zm3.6 0h0.4c0.3 0 0.4 0.1 0.4 0.4v0.3l0.6-0.3c0.4-0.3 0.8-0.4 1.8-0.4 2 0 2.3 0.5 2.3 3v1.7h-1v-1.7c0-1.6 0-1.8-0.3-2.1-0.3-0.3-0.6-0.4-1.3-0.4-1.6 0-2.1 0.6-2.1 2.8 0 1.4 0 1.4-0.4 1.4h-0.4zm10.4 0c1.1 0 1.3 0.1 1.8 0.5l0.6 0.4v-0.4c0-0.4 0.1-0.5 0.4-0.5h0.4v2.7c0 2.9-0.1 3.4-0.7 3.9-1 0.8-4.2 0.7-4.9-0.1-0.1-0.2-0.3-0.5-0.3-0.6 0-0.3 0.9-0.1 1.3 0.3 0.4 0.3 0.6 0.3 1.7 0.3 1.2 0 1.3 0 1.7-0.4 0.3-0.4 0.4-0.7 0.4-1.3 0-0.7-0.1-0.8-0.7-0.3-0.8 0.7-3 0.6-3.8-0.1-1.3-1.2-1.2-3 0.2-3.9 0.6-0.4 0.9-0.5 1.9-0.5zm-1.1 0.8q-0.9 0.5-0.9 1.7c0 1.3 0.6 1.8 2.1 1.8 1.1 0 1.6-0.2 2-0.9 0.6-1 0.3-2.1-0.7-2.6-0.6-0.3-2-0.3-2.5 0zm17-0.8h0.5c0.4 0 0.5 0.1 0.5 0.5 0 0.3 0.1 0.4 0.1 0.3 0.4-0.5 1.1-0.8 2.3-0.8 1.1 0 1.3 0.1 1.9 0.6 1.3 0.9 1.4 2.6 0.3 3.6-1.1 1-3.2 1.1-4.2 0.2l-0.4-0.4v1.6c-0.1 1.6-0.1 1.6-0.5 1.6h-0.4l-0.1-3.6zm3.3 0.5c-0.6 0.1-1.2 0.1-1.4 0.2-0.5 0.3-0.9 1-0.9 1.8 0 1.3 1.3 2.1 2.9 1.8 0.9-0.1 1.5-0.9 1.5-1.9 0-0.6-0.1-0.8-0.6-1.3-0.5-0.5-0.7-0.6-1.5-0.6zm7.5-0.5c1.2 0 1.9 0.2 2.2 0.8 0.1 0.1 0.2-0.1 0.2-0.3 0-0.4 0-0.5 0.5-0.5h0.5v4.7h-0.5c-0.4 0-0.5 0-0.5-0.3v-0.4l-0.4 0.4c-1.3 1.1-4 0.6-4.8-0.9-0.5-1-0.2-2.3 0.9-3.1 0.5-0.3 0.8-0.4 1.9-0.4zm0.1 0.5c-0.8 0-1 0.1-1.5 0.6-0.5 0.5-0.6 0.7-0.6 1.3 0 0.8 0.3 1.4 0.7 1.6 1.7 0.9 3.7 0 3.7-1.5 0-0.8-0.4-1.5-1-1.8-0.2-0.1-0.8-0.2-1.3-0.2zm8.8-0.5c1.8 0 2.1 0.1 2.1 0.6 0 0.3-0.1 0.3-0.4 0.2-0.7-0.3-2.5-0.3-3-0.1-2.1 0.8-1.7 3.3 0.5 3.6 0.9 0.1 2.1 0 2.6-0.3q0.3-0.2 0.3 0.3c0 0.3-0.1 0.4-1.2 0.6-0.9 0.2-1.3 0.2-2 0-2.8-0.6-3.4-3.2-1.1-4.5 0.5-0.3 0.9-0.4 2.2-0.4zm6.4 0c1.3 0 1.5 0.1 2 0.5 0.7 0.5 1.1 1.2 1.1 1.7 0 0.3-0.1 0.4-2.6 0.4-1.6 0-2.6 0-2.6 0.1 0 0.4 0.4 1 0.7 1.3 0.9 0.6 2.5 0.5 3.2-0.2 0.5-0.4 1-0.5 1.2-0.3 0.2 0.3-0.9 1.1-1.8 1.3-1.8 0.5-3.7-0.2-4.2-1.6-0.4-1.1 0.1-2.1 1.2-2.9 0.3-0.2 0.8-0.3 1.8-0.3zm-1.1 0.7c-0.3 0.1-0.6 0.4-0.8 0.7l-0.2 0.5h4.2l-0.2-0.5c-0.1-0.2-0.4-0.5-0.7-0.6-0.5-0.3-1.7-0.3-2.3-0.1zm13-0.7c1.2 0 1.8 0.2 2.2 0.8 0.1 0.1 0.1-0.1 0.1-0.3 0-0.4 0.1-0.5 0.5-0.5h0.5v4.7h-0.5c-0.4 0-0.5 0-0.5-0.3v-0.4l-0.3 0.4c-1.3 1.1-4.3 0.5-4.9-1-0.4-1.2-0.1-2.2 1-3 0.5-0.3 0.8-0.4 1.9-0.4zm-1.9 1.5c-0.4 0.8-0.1 2 0.5 2.5 0.8 0.6 2.7 0.4 3.3-0.4 0.8-0.9 0.5-2.4-0.5-2.9-1-0.5-2.8 0-3.3 0.8zm7.6-1.5h0.4c0.3 0 0.4 0.1 0.4 0.4 0 0.4 0.2 0.4 0.7 0 0.4-0.3 0.7-0.4 1.8-0.4 1.2 0 1.3 0.1 1.8 0.5 0.5 0.5 0.5 0.5 0.5 2.4v1.8h-0.9v-1.6c0-1.6 0-1.8-0.4-2.1-0.3-0.4-0.6-0.5-1.3-0.5-1.7 0-2 0.4-2 2.6v1.6h-1zm20.2 0c0.3 0 0.5 0.1 0.5 0.2 0 0.3 1.8 3.3 2 3.3 0.1 0 0.8-1.1 1.6-2.7 0.3-0.6 0.5-0.8 0.9-0.8 0.2 0 0.4 0.1 0.4 0.1 0 0.1-0.6 1.2-1.4 2.5l-1.5 2.5-1.5-2.4c-0.8-1.4-1.5-2.5-1.5-2.6 0 0 0.3-0.1 0.5-0.1zm9.4 0.1c1.1-0.1 1.3 0 1.9 0.4l0.5 0.4v-0.4c0-0.4 0.1-0.5 0.5-0.5h0.4v4.8h-0.4c-0.3 0-0.5-0.1-0.5-0.4 0-0.4-0.1-0.4-0.3-0.1-0.6 0.6-1.7 0.8-2.8 0.6-1.3-0.2-2-0.8-2.3-1.9-0.2-1 0.2-2 1.2-2.7 0.3-0.2 0.8-0.2 1.8-0.2zm-1.1 0.7c-0.5 0.3-1 1.2-1 1.8 0 0.5 0.4 1.2 0.9 1.5 0.6 0.3 2.1 0.3 2.7 0 1.2-0.6 1.3-2.5 0.1-3.2-0.7-0.4-2.1-0.4-2.7-0.1zm10.3-0.8h0.4c0.4 0 0.4 0 0.4 1.7 0 1.6 0.1 1.7 0.4 2.2 0.4 0.4 0.6 0.4 1.5 0.4 0.9 0 1.1 0 1.4-0.4 0.4-0.5 0.4-0.6 0.4-2.2v-1.7h1.1v1.3c-0.1 1.7-0.2 2.5-0.7 3-0.5 0.6-1.9 0.8-2.9 0.6-1.8-0.3-2-0.7-2-3.1zm10.5 0c1.3 0 1.5 0.1 2.1 0.5 0.7 0.5 1.2 1.5 1 1.9-0.1 0.1-1.3 0.1-2.7 0.1-2.3 0-2.5 0.1-2.5 0.4 0 0.5 0.8 1.3 1.5 1.4 1 0.2 2 0 2.5-0.5 0.3-0.4 1-0.5 1.2-0.3 0.1 0.3-1.2 1.2-2.1 1.4-1 0.2-2.4 0-3.1-0.5-1.4-1.1-1.3-3 0.1-4 0.6-0.3 0.9-0.4 2-0.4zm-1.1 0.7c-0.4 0.2-1 0.8-1 1 0 0.1 0.9 0.2 2 0.2 1.6 0 2.1-0.1 2.1-0.2 0-0.4-0.4-0.7-0.9-1-0.6-0.2-1.8-0.2-2.2 0zm7.1 3.2c0.5 0.1 0.6 0.2 0.7 0.5 0 0.2-0.1 0.3-0.3 0.4-0.9 0-1.3-0.2-1.1-0.7q0.1-0.2 0.7-0.2zm4.4 0c0.5 0.1 0.6 0.2 0.6 0.5 0.1 0.2 0 0.3-0.2 0.4-0.9 0-1.3-0.2-1.1-0.7q0.1-0.2 0.7-0.2zm4.5 0c0.6 0.1 0.8 0.7 0.2 0.9-0.7 0.2-1.3-0.3-0.9-0.8 0.1-0.1 0.4-0.1 0.7-0.1z"/>
	<path id="I        N        T        E    " class="s1" d="m65.5 61h-1.8v-9.2h1.8zm33.4 0l-4.7-6v6h-1.8v-9.3h1.4l4.8 6.1v-6h1.8v9.2zm34.9-9.3v1.6h-3v7.7h-1.8v-7.7h-2.9v-1.6zm27.5 7.7h4.6v1.6h-6.4v-9.3h6.3v1.6h-4.5v2.2h3.9v1.5h-3.9zm34.8 1.6q-0.9 0-1.7-0.3-0.8-0.4-1.4-1-0.6-0.7-0.9-1.5-0.4-0.9-0.4-1.9 0-1 0.4-1.8 0.3-0.8 0.9-1.5 0.6-0.6 1.5-1 0.8-0.3 1.7-0.3 1.3 0 2.3 0.5 0.9 0.6 1.4 1.5l-1.4 1q-0.3-0.7-1-1.1-0.6-0.3-1.3-0.3-0.6 0-1.1 0.2-0.5 0.3-0.8 0.7-0.4 0.4-0.6 1-0.2 0.5-0.2 1.2 0 0.6 0.2 1.2 0.2 0.5 0.6 0.9 0.4 0.5 0.9 0.7 0.5 0.2 1.1 0.2 0.7 0 1.3-0.3 0.7-0.4 1.2-1.1v1.8q-1.1 1.2-2.7 1.2zm2.6 0v-3.5h-1.9v-1.3h3.4v4.8zm29.7 0h-1.7v-9.3h4q0.7 0 1.2 0.3 0.6 0.3 0.9 0.7 0.4 0.4 0.7 1 0.2 0.5 0.2 1.1 0 0.6-0.2 1.1-0.2 0.6-0.6 1-0.4 0.4-0.9 0.6l2.1 3.5h-2l-1.9-3.1h-1.8zm0-7.7v3h2.3q0.3 0 0.6-0.2 0.3-0.2 0.4-0.5 0.2-0.4 0.2-0.8 0-0.4-0.2-0.8-0.2-0.3-0.5-0.5-0.3-0.2-0.6-0.2zm30.5 7.7l3.4-9.3h1.9l3.3 9.3h-1.8l-0.9-2.3h-3.2l-0.8 2.3zm3-3.6h2.6l-1.3-3.8zm37.7 3.6h-6.5v-9.3h1.8v7.7h4.7zm31.9-8.3l-0.7 1.5q-0.1-0.1-0.4-0.3-0.2-0.1-0.6-0.3-0.3-0.1-0.7-0.2-0.4-0.1-0.8-0.1-0.8 0-1.1 0.2-0.4 0.3-0.4 0.8 0 0.4 0.2 0.6 0.3 0.2 0.7 0.4 0.5 0.1 1.2 0.3 0.9 0.2 1.6 0.6 0.7 0.3 1 0.8 0.4 0.5 0.4 1.3 0 0.8-0.3 1.3-0.3 0.5-0.8 0.9-0.4 0.3-1 0.4-0.7 0.2-1.3 0.2-0.7 0-1.4-0.2-0.7-0.1-1.4-0.4-0.6-0.2-1.1-0.6l0.8-1.6q0.1 0.2 0.4 0.4 0.3 0.1 0.7 0.3 0.4 0.2 0.9 0.4 0.6 0.1 1.1 0.1 0.7 0 1.1-0.3 0.4-0.2 0.4-0.7 0-0.4-0.3-0.6-0.3-0.3-0.9-0.4-0.5-0.2-1.2-0.4-0.9-0.3-1.5-0.6-0.6-0.3-0.9-0.7-0.2-0.5-0.2-1.2 0-1 0.4-1.6 0.5-0.6 1.2-1 0.8-0.3 1.7-0.3 0.7 0 1.2 0.1 0.6 0.2 1.1 0.4 0.5 0.2 0.9 0.5z"/>
</svg>